<?xml version="1.0" standalone="no"?><!DOCTYPE svg PUBLIC "-//W3C//DTD SVG 1.1//EN" "http://www.w3.org/Graphics/SVG/1.1/DTD/svg11.dtd"><svg class="icon" width="16px" height="16.00px" viewBox="0 0 1024 1024" version="1.1" xmlns="http://www.w3.org/2000/svg"><path fill="#1171db" d="M863.12 701.21c-106 141.22-332.38 93.56-477.56 100.38 0 0-25.72 1.46-51.56 5.71 0 0 9.79-4.16 22.28-8.5 101.94-35.25 150.11-42.33 212.07-74.15 116.36-59.6 232.21-189.49 255.78-324.4C779.82 530 645.08 641.69 522.41 687c-83.95 31-235.82 61.14-235.86 61.14q-3.09-1.59-6.14-3.26c-103.27-50.24-106.27-273.95 81.32-346 82.27-31.6 160.89-14.25 249.82-35.42 94.8-22.55 204.64-93.61 249.25-186.52 50.02 148.47 110.13 380.68 2.32 524.27z m1.8-570.21a395 395 0 0 1-45.73 81.15A428.63 428.63 0 0 0 511.46 82c-237.15 0-430 192.88-430 430a428.63 428.63 0 0 0 137.61 314.9l9.45 8.33a36.75 36.75 0 1 1 52 0 36.76 36.76 0 0 1-52 0l6.4 5.66A427.63 427.63 0 0 0 511.46 942c226.62 0 412.76-176.39 428.69-399 11.76-109-20.44-247.45-75.23-412"  /></svg>