<?xml version="1.0" standalone="no"?><!DOCTYPE svg PUBLIC "-//W3C//DTD SVG 1.1//EN"
        "http://www.w3.org/Graphics/SVG/1.1/DTD/svg11.dtd">
<svg
        class="icon" viewBox="0 0 1024 1024" version="1.1" xmlns="http://www.w3.org/2000/svg"
        xmlns:xlink="http://www.w3.org/1999/xlink" width="16" height="16">
    <path d="M509.8 40c-21.3 0-298.7 475.2-298.7 640.1s133.7 298.7 298.7 298.7 298.7-133.7 298.7-298.7S527.6 40 509.8 40zM376.8 861.5c-1.4 5.5-6.4 9.1-11.8 9.1-1 0-2-0.1-3.1-0.4-64.6-16.8-104.3-124.7-104.3-194.7 0-6.7 5.5-12.2 12.2-12.2s12.2 5.5 12.2 12.2c0 59.9 36.2 158.1 86.1 171.1C374.6 848.4 378.5 855 376.8 861.5zM426 919.4c-21 0-38.1-17-38.1-38.1 0-21 17-38.1 38.1-38.1s38.1 17 38.1 38.1C464.1 902.4 447 919.4 426 919.4z"
          fill="#1171db"></path>
</svg>