<?xml version="1.0" standalone="no"?><!DOCTYPE svg PUBLIC "-//W3C//DTD SVG 1.1//EN"
        "http://www.w3.org/Graphics/SVG/1.1/DTD/svg11.dtd">
<svg class="icon" width="16px" height="16.00px" viewBox="0 0 1024 1024" version="1.1"
     xmlns="http://www.w3.org/2000/svg">
    <path fill="#1171db"
          d="M575.902 898.426c6.28-6.282 9.7-14.842 9.7-24.542V793.42c0-9.7-3.42-18.26-9.7-24.54-6.26-6.28-15.38-9.72-24.5-9.72h-80.406c-9.68 0-18.242 3.44-24.502 9.72-6.261 6.28-10.261 14.842-10.261 24.54v80.464c0 9.7 4 18.26 10.26 24.542 6.261 6.28 14.821 10.28 24.503 10.28h80.406c9.12 0 18.24-4 24.5-10.28z m-104.906-191.19h80.406c23.361 0 45.043 9.702 61.002 25.102 15.383 15.981 25.085 37.101 25.085 61.081v80.464c0 23.98-9.701 45.662-25.085 61.082-15.96 15.402-37.641 25.1-61.002 25.1h-80.406c-23.922 0-45.605-9.699-60.985-25.1-15.963-15.42-25.083-37.103-25.083-61.082v-80.464c0-23.98 9.121-45.1 25.083-61.08 15.38-15.4 37.062-25.102 60.985-25.102z m426.47 191.19c6.261-6.282 10.262-14.842 10.262-24.542V793.42c0-9.7-4-18.26-10.261-24.54-6.281-6.28-14.822-9.72-24.522-9.72h-80.387c-9.7 0-18.241 3.44-24.52 9.72-6.262 6.28-9.683 14.842-9.683 24.54v80.464c0 9.7 3.421 18.26 9.683 24.542 6.279 6.28 14.82 10.28 24.52 10.28h80.387c9.7 0 18.242-4 24.522-10.28zM792.56 707.236h80.387c23.941 0 45.603 9.702 61.004 25.102 15.4 15.981 25.083 37.101 25.083 61.081v80.464c0 23.98-9.683 45.662-25.083 61.082-15.401 15.402-37.063 25.1-61.004 25.1H792.56c-23.94 0-45.044-9.699-61.006-25.1-15.4-15.42-25.08-37.103-25.08-61.082v-80.464c0-23.98 9.68-45.1 25.08-61.08 15.962-15.4 37.064-25.102 61.006-25.102z m-538.761 191.19c6.261-6.282 10.241-14.842 10.241-24.542V793.42c0-9.7-3.98-18.26-10.241-24.54-6.281-6.28-14.841-9.72-24.523-9.72H148.87c-9.68 0-18.241 3.44-24.502 9.72-6.26 6.28-9.7 14.842-9.7 24.54v80.464c0 9.7 3.44 18.26 9.7 24.542 6.262 6.28 15.382 10.28 24.502 10.28h80.405c9.682 0 18.242-4 24.523-10.28zM148.87 707.236h80.405c23.943 0 45.604 9.702 61.006 25.102 15.96 15.981 25.082 37.101 25.082 61.081v80.464c0 23.98-9.122 45.662-25.082 61.082-15.401 15.402-37.062 25.1-61.006 25.1H148.87c-23.923 0-45.023-9.699-60.985-25.1-15.4-15.42-25.082-37.103-25.082-61.082v-80.464c0-23.98 9.681-45.1 25.082-61.08 15.962-15.4 37.062-25.102 60.985-25.102z m58.744-36.54c-4.56 4.58-11.4 7.42-18.241 7.42-7.42 0-13.682-2.84-18.242-7.42-4.56-4.56-7.42-10.842-7.42-18.26V491.488h-0.58c0-6.85 3.44-13.7 8.001-18.261 4.56-4.57 10.822-7.419 18.242-7.419h295.881v-95.314c0-6.85 2.862-13.13 7.422-18.262 4.561-4.569 11.4-7.42 18.24-7.42 7.402 0 13.682 2.851 18.242 7.42 4.562 5.131 7.982 11.411 7.982 18.262v95.314h295.9c6.841 0 13.103 2.849 18.243 7.419 4.56 4.562 7.401 11.41 7.401 18.26v160.947c0 7.42-2.84 13.7-7.401 18.26-5.14 4.58-11.403 8.002-18.243 8.002-7.42 0-13.68-3.422-18.24-8.002-5.14-4.56-7.98-10.84-7.98-18.26V517.171H536.578v135.265c0 7.42-2.858 13.7-7.42 18.26-4.56 4.58-10.84 8.002-18.241 8.002-6.842 0-13.68-3.422-18.24-8.002-4.561-4.56-7.423-10.84-7.423-18.26V517.171H215.016v135.265c0 7.418-2.841 13.7-7.402 18.26z m238.88-546.19c-6.261 6.279-10.261 15.41-10.261 24.54v80.472c0 9.701 4 18.261 10.26 24.541 6.261 6.28 14.821 10.28 24.503 10.28h80.406c9.12 0 18.24-4 24.5-10.28 6.28-6.28 9.7-14.84 9.7-24.54v-80.473c0-9.13-3.42-18.262-9.7-24.54-6.26-6.281-15.38-9.701-24.5-9.701h-80.406c-9.682 0-18.243 3.99-24.502 9.7z m104.908 191.196h-80.406c-23.922 0-45.605-9.129-60.985-25.11-15.963-15.41-25.083-37.102-25.083-61.073v-80.472c0-23.401 9.121-45.092 25.083-61.073 15.38-15.41 37.063-25.111 60.985-25.111h80.406c23.361 0 45.043 9.7 61.002 25.11 15.383 15.98 25.085 37.672 25.085 61.074v80.472c0 23.971-9.701 45.663-25.085 61.072-15.96 15.982-37.641 25.111-61.002 25.111z"/>
</svg>